<mxfile host="Electron" agent="Mozilla/5.0 (Windows NT 10.0; Win64; x64) AppleWebKit/537.36 (KHTML, like Gecko) draw.io/28.0.6 Chrome/138.0.7204.100 Electron/37.2.3 Safari/537.36" version="28.0.6">
  <diagram name="Page-1" id="eUrmsSww9ih8l_el2KOc">
    <mxGraphModel dx="1426" dy="841" grid="0" gridSize="10" guides="1" tooltips="1" connect="1" arrows="1" fold="1" page="1" pageScale="1" pageWidth="2000" pageHeight="1000" background="#000000" math="0" shadow="0">
      <root>
        <mxCell id="0" />
        <mxCell id="1" parent="0" />
        <mxCell id="xAxD8ZSyjkHvQui83Olt-172" value="" style="rounded=1;whiteSpace=wrap;html=1;" parent="1" vertex="1">
          <mxGeometry x="31" y="607" width="1784" height="280" as="geometry" />
        </mxCell>
        <mxCell id="xAxD8ZSyjkHvQui83Olt-120" value="" style="rounded=1;whiteSpace=wrap;html=1;rotation=90;" parent="1" vertex="1">
          <mxGeometry x="68" y="219.5" width="260" height="89.5" as="geometry" />
        </mxCell>
        <mxCell id="xAxD8ZSyjkHvQui83Olt-1" value="" style="whiteSpace=wrap;html=1;aspect=fixed;fillColor=#60a917;fontColor=#ffffff;strokeColor=#2D7600;" parent="1" vertex="1">
          <mxGeometry x="172.5" y="189" width="51" height="51" as="geometry" />
        </mxCell>
        <mxCell id="xAxD8ZSyjkHvQui83Olt-2" value="" style="whiteSpace=wrap;html=1;aspect=fixed;fillColor=#60a917;fontColor=#ffffff;strokeColor=#2D7600;" parent="1" vertex="1">
          <mxGeometry x="172.5" y="257" width="51" height="51" as="geometry" />
        </mxCell>
        <mxCell id="xAxD8ZSyjkHvQui83Olt-3" value="" style="whiteSpace=wrap;html=1;aspect=fixed;fillColor=#60a917;fontColor=#ffffff;strokeColor=#2D7600;" parent="1" vertex="1">
          <mxGeometry x="172.5" y="325" width="51" height="51" as="geometry" />
        </mxCell>
        <mxCell id="xAxD8ZSyjkHvQui83Olt-4" value="" style="rounded=1;whiteSpace=wrap;html=1;rotation=-90;" parent="1" vertex="1">
          <mxGeometry x="334" y="251" width="120" height="60" as="geometry" />
        </mxCell>
        <mxCell id="xAxD8ZSyjkHvQui83Olt-11" value="CH0" style="text;html=1;align=center;verticalAlign=middle;whiteSpace=wrap;rounded=0;fillColor=none;" parent="1" vertex="1">
          <mxGeometry x="177.5" y="199.5" width="43" height="30" as="geometry" />
        </mxCell>
        <mxCell id="xAxD8ZSyjkHvQui83Olt-12" value="CH1" style="text;html=1;align=center;verticalAlign=middle;whiteSpace=wrap;rounded=0;fillColor=none;" parent="1" vertex="1">
          <mxGeometry x="175.5" y="267.5" width="45" height="30" as="geometry" />
        </mxCell>
        <mxCell id="xAxD8ZSyjkHvQui83Olt-13" value="CH2" style="text;html=1;align=center;verticalAlign=middle;whiteSpace=wrap;rounded=0;fillColor=none;" parent="1" vertex="1">
          <mxGeometry x="177.5" y="335.5" width="41" height="30" as="geometry" />
        </mxCell>
        <mxCell id="xAxD8ZSyjkHvQui83Olt-14" value="MIC 0" style="ellipse;whiteSpace=wrap;html=1;aspect=fixed;fillColor=#ffcd28;strokeColor=#d79b00;gradientColor=#ffa500;" parent="1" vertex="1">
          <mxGeometry x="61" y="199.5" width="34" height="34" as="geometry" />
        </mxCell>
        <mxCell id="xAxD8ZSyjkHvQui83Olt-15" value="MIC 1" style="ellipse;whiteSpace=wrap;html=1;aspect=fixed;fillColor=#ffcd28;strokeColor=#d79b00;gradientColor=#ffa500;" parent="1" vertex="1">
          <mxGeometry x="60" y="267" width="35" height="35" as="geometry" />
        </mxCell>
        <mxCell id="xAxD8ZSyjkHvQui83Olt-16" value="MIC 2" style="ellipse;whiteSpace=wrap;html=1;aspect=fixed;fillColor=#ffcd28;strokeColor=#d79b00;gradientColor=#ffa500;" parent="1" vertex="1">
          <mxGeometry x="61" y="335.5" width="34" height="34" as="geometry" />
        </mxCell>
        <mxCell id="xAxD8ZSyjkHvQui83Olt-30" value="DMA2" style="text;html=1;align=center;verticalAlign=middle;whiteSpace=wrap;rounded=0;fillColor=none;" parent="1" vertex="1">
          <mxGeometry x="372.5" y="264.5" width="43" height="30" as="geometry" />
        </mxCell>
        <mxCell id="xAxD8ZSyjkHvQui83Olt-33" value="" style="shape=trapezoid;perimeter=trapezoidPerimeter;whiteSpace=wrap;html=1;fixedSize=1;rotation=-90;" parent="1" vertex="1">
          <mxGeometry x="592.5" y="241.5" width="120" height="79" as="geometry" />
        </mxCell>
        <mxCell id="xAxD8ZSyjkHvQui83Olt-36" value="&lt;font style=&quot;font-size: 10px;&quot;&gt;stream_splice()&lt;/font&gt;" style="text;html=1;align=center;verticalAlign=middle;whiteSpace=wrap;rounded=0;fontSize=8;" parent="1" vertex="1">
          <mxGeometry x="612" y="265.5" width="78.25" height="30" as="geometry" />
        </mxCell>
        <mxCell id="xAxD8ZSyjkHvQui83Olt-37" value="" style="endArrow=classic;html=1;rounded=0;fillColor=none;labelBackgroundColor=default;" parent="1" edge="1">
          <mxGeometry relative="1" as="geometry">
            <mxPoint x="692" y="237" as="sourcePoint" />
            <mxPoint x="792" y="237" as="targetPoint" />
          </mxGeometry>
        </mxCell>
        <mxCell id="xAxD8ZSyjkHvQui83Olt-38" value="mic0_samp" style="edgeLabel;resizable=0;html=1;;align=center;verticalAlign=middle;" parent="xAxD8ZSyjkHvQui83Olt-37" connectable="0" vertex="1">
          <mxGeometry relative="1" as="geometry" />
        </mxCell>
        <mxCell id="xAxD8ZSyjkHvQui83Olt-40" value="" style="endArrow=classic;html=1;rounded=0;fillColor=none;labelBackgroundColor=default;" parent="1" edge="1">
          <mxGeometry relative="1" as="geometry">
            <mxPoint x="692" y="279.3" as="sourcePoint" />
            <mxPoint x="792" y="279.3" as="targetPoint" />
            <Array as="points">
              <mxPoint x="715" y="279.3" />
            </Array>
          </mxGeometry>
        </mxCell>
        <mxCell id="xAxD8ZSyjkHvQui83Olt-41" value="mic1_samp" style="edgeLabel;resizable=0;html=1;;align=center;verticalAlign=middle;" parent="xAxD8ZSyjkHvQui83Olt-40" connectable="0" vertex="1">
          <mxGeometry relative="1" as="geometry" />
        </mxCell>
        <mxCell id="xAxD8ZSyjkHvQui83Olt-42" value="" style="endArrow=classic;html=1;rounded=0;fillColor=none;labelBackgroundColor=default;" parent="1" edge="1">
          <mxGeometry relative="1" as="geometry">
            <mxPoint x="692" y="322" as="sourcePoint" />
            <mxPoint x="792" y="322" as="targetPoint" />
            <Array as="points">
              <mxPoint x="715" y="322" />
            </Array>
          </mxGeometry>
        </mxCell>
        <mxCell id="xAxD8ZSyjkHvQui83Olt-43" value="mic2_samp" style="edgeLabel;resizable=0;html=1;;align=center;verticalAlign=middle;" parent="xAxD8ZSyjkHvQui83Olt-42" connectable="0" vertex="1">
          <mxGeometry relative="1" as="geometry" />
        </mxCell>
        <mxCell id="xAxD8ZSyjkHvQui83Olt-45" value="&lt;font style=&quot;font-size: 10px;&quot;&gt;fir_decimate()&lt;/font&gt;" style="rounded=1;whiteSpace=wrap;html=1;" parent="1" vertex="1">
          <mxGeometry x="792" y="222" width="79" height="32" as="geometry" />
        </mxCell>
        <mxCell id="xAxD8ZSyjkHvQui83Olt-46" value="&lt;font style=&quot;font-size: 10px;&quot;&gt;fir_decimate()&lt;/font&gt;" style="rounded=1;whiteSpace=wrap;html=1;" parent="1" vertex="1">
          <mxGeometry x="792" y="263.5" width="79" height="32" as="geometry" />
        </mxCell>
        <mxCell id="xAxD8ZSyjkHvQui83Olt-47" value="&lt;font style=&quot;font-size: 10px;&quot;&gt;fir_decimate()&lt;/font&gt;" style="rounded=1;whiteSpace=wrap;html=1;" parent="1" vertex="1">
          <mxGeometry x="792" y="305" width="79" height="32" as="geometry" />
        </mxCell>
        <mxCell id="xAxD8ZSyjkHvQui83Olt-48" value="" style="rounded=1;whiteSpace=wrap;html=1;rotation=-90;" parent="1" vertex="1">
          <mxGeometry x="977" y="229.5" width="120" height="97" as="geometry" />
        </mxCell>
        <mxCell id="xAxD8ZSyjkHvQui83Olt-49" value="" style="endArrow=classic;html=1;rounded=0;fillColor=none;labelBackgroundColor=default;" parent="1" edge="1">
          <mxGeometry relative="1" as="geometry">
            <mxPoint x="871" y="237" as="sourcePoint" />
            <mxPoint x="988" y="236" as="targetPoint" />
          </mxGeometry>
        </mxCell>
        <mxCell id="xAxD8ZSyjkHvQui83Olt-50" value="mic0_filtered" style="edgeLabel;resizable=0;html=1;;align=center;verticalAlign=middle;" parent="xAxD8ZSyjkHvQui83Olt-49" connectable="0" vertex="1">
          <mxGeometry relative="1" as="geometry" />
        </mxCell>
        <mxCell id="xAxD8ZSyjkHvQui83Olt-51" value="" style="endArrow=classic;html=1;rounded=0;fillColor=none;labelBackgroundColor=default;" parent="1" edge="1">
          <mxGeometry relative="1" as="geometry">
            <mxPoint x="871" y="280" as="sourcePoint" />
            <mxPoint x="988" y="279" as="targetPoint" />
          </mxGeometry>
        </mxCell>
        <mxCell id="xAxD8ZSyjkHvQui83Olt-52" value="mic1_filtered" style="edgeLabel;resizable=0;html=1;;align=center;verticalAlign=middle;" parent="xAxD8ZSyjkHvQui83Olt-51" connectable="0" vertex="1">
          <mxGeometry relative="1" as="geometry" />
        </mxCell>
        <mxCell id="xAxD8ZSyjkHvQui83Olt-53" value="" style="endArrow=classic;html=1;rounded=0;fillColor=none;labelBackgroundColor=default;" parent="1" edge="1">
          <mxGeometry relative="1" as="geometry">
            <mxPoint x="871" y="323" as="sourcePoint" />
            <mxPoint x="988" y="322" as="targetPoint" />
          </mxGeometry>
        </mxCell>
        <mxCell id="xAxD8ZSyjkHvQui83Olt-54" value="mic2_filtered" style="edgeLabel;resizable=0;html=1;;align=center;verticalAlign=middle;" parent="xAxD8ZSyjkHvQui83Olt-53" connectable="0" vertex="1">
          <mxGeometry relative="1" as="geometry" />
        </mxCell>
        <mxCell id="xAxD8ZSyjkHvQui83Olt-55" value="&lt;font style=&quot;font-size: 10px;&quot;&gt;find_filter_peaks()&lt;/font&gt;" style="text;html=1;align=center;verticalAlign=middle;whiteSpace=wrap;rounded=0;" parent="1" vertex="1">
          <mxGeometry x="1007" y="264.5" width="60" height="30" as="geometry" />
        </mxCell>
        <mxCell id="xAxD8ZSyjkHvQui83Olt-61" value="" style="endArrow=classic;html=1;rounded=0;" parent="1" edge="1">
          <mxGeometry relative="1" as="geometry">
            <mxPoint x="424" y="246.5" as="sourcePoint" />
            <mxPoint x="524" y="246.5" as="targetPoint" />
          </mxGeometry>
        </mxCell>
        <mxCell id="xAxD8ZSyjkHvQui83Olt-62" value="stream0" style="edgeLabel;resizable=0;html=1;;align=center;verticalAlign=middle;" parent="xAxD8ZSyjkHvQui83Olt-61" connectable="0" vertex="1">
          <mxGeometry relative="1" as="geometry" />
        </mxCell>
        <mxCell id="xAxD8ZSyjkHvQui83Olt-63" value="" style="endArrow=classic;html=1;rounded=0;" parent="1" edge="1">
          <mxGeometry relative="1" as="geometry">
            <mxPoint x="424" y="311" as="sourcePoint" />
            <mxPoint x="524" y="311" as="targetPoint" />
          </mxGeometry>
        </mxCell>
        <mxCell id="xAxD8ZSyjkHvQui83Olt-64" value="stream1" style="edgeLabel;resizable=0;html=1;;align=center;verticalAlign=middle;" parent="xAxD8ZSyjkHvQui83Olt-63" connectable="0" vertex="1">
          <mxGeometry relative="1" as="geometry" />
        </mxCell>
        <mxCell id="xAxD8ZSyjkHvQui83Olt-158" value="" style="edgeStyle=orthogonalEdgeStyle;rounded=0;orthogonalLoop=1;jettySize=auto;html=1;" parent="1" source="xAxD8ZSyjkHvQui83Olt-65" target="xAxD8ZSyjkHvQui83Olt-36" edge="1">
          <mxGeometry relative="1" as="geometry" />
        </mxCell>
        <mxCell id="xAxD8ZSyjkHvQui83Olt-65" value="" style="shape=trapezoid;perimeter=trapezoidPerimeter;whiteSpace=wrap;html=1;fixedSize=1;rotation=90;" parent="1" vertex="1">
          <mxGeometry x="482.5" y="264.5" width="120" height="33" as="geometry" />
        </mxCell>
        <mxCell id="xAxD8ZSyjkHvQui83Olt-66" value="" style="endArrow=classic;html=1;rounded=0;entryX=0.898;entryY=0.47;entryDx=0;entryDy=0;entryPerimeter=0;" parent="1" edge="1">
          <mxGeometry width="50" height="50" relative="1" as="geometry">
            <mxPoint x="545.2" y="386.24" as="sourcePoint" />
            <mxPoint x="544" y="330" as="targetPoint" />
          </mxGeometry>
        </mxCell>
        <mxCell id="xAxD8ZSyjkHvQui83Olt-67" value="DMA_SxCR_CT" style="text;html=1;align=center;verticalAlign=middle;whiteSpace=wrap;rounded=0;fontSize=9;" parent="1" vertex="1">
          <mxGeometry x="495.5" y="384" width="94" height="30" as="geometry" />
        </mxCell>
        <mxCell id="xAxD8ZSyjkHvQui83Olt-70" value="&lt;b&gt;&lt;font style=&quot;font-size: 16px;&quot;&gt;Stream Structures&lt;/font&gt;&lt;/b&gt;" style="text;html=1;align=center;verticalAlign=middle;whiteSpace=wrap;rounded=0;" parent="1" vertex="1">
          <mxGeometry x="848.75" y="633" width="179.5" height="30" as="geometry" />
        </mxCell>
        <mxCell id="xAxD8ZSyjkHvQui83Olt-85" value="" style="shape=table;startSize=0;container=1;collapsible=0;childLayout=tableLayout;" parent="1" vertex="1">
          <mxGeometry x="88.5" y="758" width="420" height="40" as="geometry" />
        </mxCell>
        <mxCell id="xAxD8ZSyjkHvQui83Olt-86" value="" style="shape=tableRow;horizontal=0;startSize=0;swimlaneHead=0;swimlaneBody=0;strokeColor=inherit;top=0;left=0;bottom=0;right=0;collapsible=0;dropTarget=0;fillColor=none;points=[[0,0.5],[1,0.5]];portConstraint=eastwest;" parent="xAxD8ZSyjkHvQui83Olt-85" vertex="1">
          <mxGeometry width="420" height="40" as="geometry" />
        </mxCell>
        <mxCell id="xAxD8ZSyjkHvQui83Olt-87" value="CH0_S0" style="shape=partialRectangle;html=1;whiteSpace=wrap;connectable=0;strokeColor=inherit;overflow=hidden;fillColor=none;top=0;left=0;bottom=0;right=0;pointerEvents=1;" parent="xAxD8ZSyjkHvQui83Olt-86" vertex="1">
          <mxGeometry width="60" height="40" as="geometry">
            <mxRectangle width="60" height="40" as="alternateBounds" />
          </mxGeometry>
        </mxCell>
        <mxCell id="xAxD8ZSyjkHvQui83Olt-88" value="CH1_S0" style="shape=partialRectangle;html=1;whiteSpace=wrap;connectable=0;strokeColor=inherit;overflow=hidden;fillColor=none;top=0;left=0;bottom=0;right=0;pointerEvents=1;" parent="xAxD8ZSyjkHvQui83Olt-86" vertex="1">
          <mxGeometry x="60" width="60" height="40" as="geometry">
            <mxRectangle width="60" height="40" as="alternateBounds" />
          </mxGeometry>
        </mxCell>
        <mxCell id="xAxD8ZSyjkHvQui83Olt-89" value="CH2_S0" style="shape=partialRectangle;html=1;whiteSpace=wrap;connectable=0;strokeColor=inherit;overflow=hidden;fillColor=none;top=0;left=0;bottom=0;right=0;pointerEvents=1;" parent="xAxD8ZSyjkHvQui83Olt-86" vertex="1">
          <mxGeometry x="120" width="60" height="40" as="geometry">
            <mxRectangle width="60" height="40" as="alternateBounds" />
          </mxGeometry>
        </mxCell>
        <mxCell id="xAxD8ZSyjkHvQui83Olt-90" value="CH0_S1" style="shape=partialRectangle;html=1;whiteSpace=wrap;connectable=0;strokeColor=inherit;overflow=hidden;fillColor=none;top=0;left=0;bottom=0;right=0;pointerEvents=1;" parent="xAxD8ZSyjkHvQui83Olt-86" vertex="1">
          <mxGeometry x="180" width="60" height="40" as="geometry">
            <mxRectangle width="60" height="40" as="alternateBounds" />
          </mxGeometry>
        </mxCell>
        <mxCell id="xAxD8ZSyjkHvQui83Olt-91" value="CH1_S1" style="shape=partialRectangle;html=1;whiteSpace=wrap;connectable=0;strokeColor=inherit;overflow=hidden;fillColor=none;top=0;left=0;bottom=0;right=0;pointerEvents=1;" parent="xAxD8ZSyjkHvQui83Olt-86" vertex="1">
          <mxGeometry x="240" width="60" height="40" as="geometry">
            <mxRectangle width="60" height="40" as="alternateBounds" />
          </mxGeometry>
        </mxCell>
        <mxCell id="xAxD8ZSyjkHvQui83Olt-92" value="CH2_S1" style="shape=partialRectangle;html=1;whiteSpace=wrap;connectable=0;strokeColor=inherit;overflow=hidden;fillColor=none;top=0;left=0;bottom=0;right=0;pointerEvents=1;" parent="xAxD8ZSyjkHvQui83Olt-86" vertex="1">
          <mxGeometry x="300" width="60" height="40" as="geometry">
            <mxRectangle width="60" height="40" as="alternateBounds" />
          </mxGeometry>
        </mxCell>
        <mxCell id="xAxD8ZSyjkHvQui83Olt-93" value="CH0_S2" style="shape=partialRectangle;html=1;whiteSpace=wrap;connectable=0;strokeColor=inherit;overflow=hidden;fillColor=none;top=0;left=0;bottom=0;right=0;pointerEvents=1;" parent="xAxD8ZSyjkHvQui83Olt-86" vertex="1">
          <mxGeometry x="360" width="60" height="40" as="geometry">
            <mxRectangle width="60" height="40" as="alternateBounds" />
          </mxGeometry>
        </mxCell>
        <mxCell id="xAxD8ZSyjkHvQui83Olt-94" value="" style="shape=table;startSize=0;container=1;collapsible=0;childLayout=tableLayout;" parent="1" vertex="1">
          <mxGeometry x="508.5" y="758" width="60" height="40" as="geometry" />
        </mxCell>
        <mxCell id="xAxD8ZSyjkHvQui83Olt-95" value="" style="shape=tableRow;horizontal=0;startSize=0;swimlaneHead=0;swimlaneBody=0;strokeColor=inherit;top=0;left=0;bottom=0;right=0;collapsible=0;dropTarget=0;fillColor=none;points=[[0,0.5],[1,0.5]];portConstraint=eastwest;" parent="xAxD8ZSyjkHvQui83Olt-94" vertex="1">
          <mxGeometry width="60" height="40" as="geometry" />
        </mxCell>
        <mxCell id="xAxD8ZSyjkHvQui83Olt-96" value="" style="shape=partialRectangle;html=1;whiteSpace=wrap;connectable=0;strokeColor=inherit;overflow=hidden;fillColor=none;top=0;left=0;bottom=0;right=0;pointerEvents=1;" parent="xAxD8ZSyjkHvQui83Olt-95" vertex="1">
          <mxGeometry width="15" height="40" as="geometry">
            <mxRectangle width="15" height="40" as="alternateBounds" />
          </mxGeometry>
        </mxCell>
        <mxCell id="xAxD8ZSyjkHvQui83Olt-97" value=".." style="shape=partialRectangle;html=1;whiteSpace=wrap;connectable=0;strokeColor=inherit;overflow=hidden;fillColor=none;top=0;left=0;bottom=0;right=0;pointerEvents=1;" parent="xAxD8ZSyjkHvQui83Olt-95" vertex="1">
          <mxGeometry x="15" width="15" height="40" as="geometry">
            <mxRectangle width="15" height="40" as="alternateBounds" />
          </mxGeometry>
        </mxCell>
        <mxCell id="xAxD8ZSyjkHvQui83Olt-98" value="" style="shape=partialRectangle;html=1;whiteSpace=wrap;connectable=0;strokeColor=inherit;overflow=hidden;fillColor=none;top=0;left=0;bottom=0;right=0;pointerEvents=1;" parent="xAxD8ZSyjkHvQui83Olt-95" vertex="1">
          <mxGeometry x="30" width="15" height="40" as="geometry">
            <mxRectangle width="15" height="40" as="alternateBounds" />
          </mxGeometry>
        </mxCell>
        <mxCell id="xAxD8ZSyjkHvQui83Olt-99" value="" style="shape=partialRectangle;html=1;whiteSpace=wrap;connectable=0;strokeColor=inherit;overflow=hidden;fillColor=none;top=0;left=0;bottom=0;right=0;pointerEvents=1;" parent="xAxD8ZSyjkHvQui83Olt-95" vertex="1">
          <mxGeometry x="45" width="15" height="40" as="geometry">
            <mxRectangle width="15" height="40" as="alternateBounds" />
          </mxGeometry>
        </mxCell>
        <mxCell id="xAxD8ZSyjkHvQui83Olt-100" value="" style="shape=curlyBracket;whiteSpace=wrap;html=1;rounded=1;labelPosition=left;verticalLabelPosition=middle;align=right;verticalAlign=middle;rotation=-90;" parent="1" vertex="1">
          <mxGeometry x="318.5" y="576" width="20" height="484" as="geometry" />
        </mxCell>
        <mxCell id="xAxD8ZSyjkHvQui83Olt-101" value="BLOCK_SIZE" style="text;html=1;align=center;verticalAlign=middle;whiteSpace=wrap;rounded=0;" parent="1" vertex="1">
          <mxGeometry x="284.5" y="829" width="88" height="30" as="geometry" />
        </mxCell>
        <mxCell id="xAxD8ZSyjkHvQui83Olt-102" value="micX_samp" style="text;html=1;align=center;verticalAlign=middle;whiteSpace=wrap;rounded=0;" parent="1" vertex="1">
          <mxGeometry x="851" y="712" width="175" height="30" as="geometry" />
        </mxCell>
        <mxCell id="xAxD8ZSyjkHvQui83Olt-103" value="" style="shape=table;startSize=0;container=1;collapsible=0;childLayout=tableLayout;" parent="1" vertex="1">
          <mxGeometry x="697.5" y="753" width="420" height="40" as="geometry" />
        </mxCell>
        <mxCell id="xAxD8ZSyjkHvQui83Olt-104" value="" style="shape=tableRow;horizontal=0;startSize=0;swimlaneHead=0;swimlaneBody=0;strokeColor=inherit;top=0;left=0;bottom=0;right=0;collapsible=0;dropTarget=0;fillColor=none;points=[[0,0.5],[1,0.5]];portConstraint=eastwest;" parent="xAxD8ZSyjkHvQui83Olt-103" vertex="1">
          <mxGeometry width="420" height="40" as="geometry" />
        </mxCell>
        <mxCell id="xAxD8ZSyjkHvQui83Olt-105" value="CHX_S0" style="shape=partialRectangle;html=1;whiteSpace=wrap;connectable=0;strokeColor=inherit;overflow=hidden;fillColor=none;top=0;left=0;bottom=0;right=0;pointerEvents=1;" parent="xAxD8ZSyjkHvQui83Olt-104" vertex="1">
          <mxGeometry width="60" height="40" as="geometry">
            <mxRectangle width="60" height="40" as="alternateBounds" />
          </mxGeometry>
        </mxCell>
        <mxCell id="xAxD8ZSyjkHvQui83Olt-106" value="CHX_S1" style="shape=partialRectangle;html=1;whiteSpace=wrap;connectable=0;strokeColor=inherit;overflow=hidden;fillColor=none;top=0;left=0;bottom=0;right=0;pointerEvents=1;" parent="xAxD8ZSyjkHvQui83Olt-104" vertex="1">
          <mxGeometry x="60" width="60" height="40" as="geometry">
            <mxRectangle width="60" height="40" as="alternateBounds" />
          </mxGeometry>
        </mxCell>
        <mxCell id="xAxD8ZSyjkHvQui83Olt-107" value="CHX_S2" style="shape=partialRectangle;html=1;whiteSpace=wrap;connectable=0;strokeColor=inherit;overflow=hidden;fillColor=none;top=0;left=0;bottom=0;right=0;pointerEvents=1;" parent="xAxD8ZSyjkHvQui83Olt-104" vertex="1">
          <mxGeometry x="120" width="60" height="40" as="geometry">
            <mxRectangle width="60" height="40" as="alternateBounds" />
          </mxGeometry>
        </mxCell>
        <mxCell id="xAxD8ZSyjkHvQui83Olt-108" value="CHX_S3" style="shape=partialRectangle;html=1;whiteSpace=wrap;connectable=0;strokeColor=inherit;overflow=hidden;fillColor=none;top=0;left=0;bottom=0;right=0;pointerEvents=1;" parent="xAxD8ZSyjkHvQui83Olt-104" vertex="1">
          <mxGeometry x="180" width="60" height="40" as="geometry">
            <mxRectangle width="60" height="40" as="alternateBounds" />
          </mxGeometry>
        </mxCell>
        <mxCell id="xAxD8ZSyjkHvQui83Olt-109" value="CHX_S4" style="shape=partialRectangle;html=1;whiteSpace=wrap;connectable=0;strokeColor=inherit;overflow=hidden;fillColor=none;top=0;left=0;bottom=0;right=0;pointerEvents=1;" parent="xAxD8ZSyjkHvQui83Olt-104" vertex="1">
          <mxGeometry x="240" width="60" height="40" as="geometry">
            <mxRectangle width="60" height="40" as="alternateBounds" />
          </mxGeometry>
        </mxCell>
        <mxCell id="xAxD8ZSyjkHvQui83Olt-110" value="CHX_S5" style="shape=partialRectangle;html=1;whiteSpace=wrap;connectable=0;strokeColor=inherit;overflow=hidden;fillColor=none;top=0;left=0;bottom=0;right=0;pointerEvents=1;" parent="xAxD8ZSyjkHvQui83Olt-104" vertex="1">
          <mxGeometry x="300" width="60" height="40" as="geometry">
            <mxRectangle width="60" height="40" as="alternateBounds" />
          </mxGeometry>
        </mxCell>
        <mxCell id="xAxD8ZSyjkHvQui83Olt-111" value="CHX_S6" style="shape=partialRectangle;html=1;whiteSpace=wrap;connectable=0;strokeColor=inherit;overflow=hidden;fillColor=none;top=0;left=0;bottom=0;right=0;pointerEvents=1;" parent="xAxD8ZSyjkHvQui83Olt-104" vertex="1">
          <mxGeometry x="360" width="60" height="40" as="geometry">
            <mxRectangle width="60" height="40" as="alternateBounds" />
          </mxGeometry>
        </mxCell>
        <mxCell id="xAxD8ZSyjkHvQui83Olt-112" value="" style="shape=table;startSize=0;container=1;collapsible=0;childLayout=tableLayout;" parent="1" vertex="1">
          <mxGeometry x="1117.5" y="753" width="60" height="40" as="geometry" />
        </mxCell>
        <mxCell id="xAxD8ZSyjkHvQui83Olt-113" value="" style="shape=tableRow;horizontal=0;startSize=0;swimlaneHead=0;swimlaneBody=0;strokeColor=inherit;top=0;left=0;bottom=0;right=0;collapsible=0;dropTarget=0;fillColor=none;points=[[0,0.5],[1,0.5]];portConstraint=eastwest;" parent="xAxD8ZSyjkHvQui83Olt-112" vertex="1">
          <mxGeometry width="60" height="40" as="geometry" />
        </mxCell>
        <mxCell id="xAxD8ZSyjkHvQui83Olt-114" value="" style="shape=partialRectangle;html=1;whiteSpace=wrap;connectable=0;strokeColor=inherit;overflow=hidden;fillColor=none;top=0;left=0;bottom=0;right=0;pointerEvents=1;" parent="xAxD8ZSyjkHvQui83Olt-113" vertex="1">
          <mxGeometry width="15" height="40" as="geometry">
            <mxRectangle width="15" height="40" as="alternateBounds" />
          </mxGeometry>
        </mxCell>
        <mxCell id="xAxD8ZSyjkHvQui83Olt-115" value=".." style="shape=partialRectangle;html=1;whiteSpace=wrap;connectable=0;strokeColor=inherit;overflow=hidden;fillColor=none;top=0;left=0;bottom=0;right=0;pointerEvents=1;" parent="xAxD8ZSyjkHvQui83Olt-113" vertex="1">
          <mxGeometry x="15" width="15" height="40" as="geometry">
            <mxRectangle width="15" height="40" as="alternateBounds" />
          </mxGeometry>
        </mxCell>
        <mxCell id="xAxD8ZSyjkHvQui83Olt-116" value="" style="shape=partialRectangle;html=1;whiteSpace=wrap;connectable=0;strokeColor=inherit;overflow=hidden;fillColor=none;top=0;left=0;bottom=0;right=0;pointerEvents=1;" parent="xAxD8ZSyjkHvQui83Olt-113" vertex="1">
          <mxGeometry x="30" width="15" height="40" as="geometry">
            <mxRectangle width="15" height="40" as="alternateBounds" />
          </mxGeometry>
        </mxCell>
        <mxCell id="xAxD8ZSyjkHvQui83Olt-117" value="" style="shape=partialRectangle;html=1;whiteSpace=wrap;connectable=0;strokeColor=inherit;overflow=hidden;fillColor=none;top=0;left=0;bottom=0;right=0;pointerEvents=1;" parent="xAxD8ZSyjkHvQui83Olt-113" vertex="1">
          <mxGeometry x="45" width="15" height="40" as="geometry">
            <mxRectangle width="15" height="40" as="alternateBounds" />
          </mxGeometry>
        </mxCell>
        <mxCell id="xAxD8ZSyjkHvQui83Olt-118" value="" style="shape=curlyBracket;whiteSpace=wrap;html=1;rounded=1;labelPosition=left;verticalLabelPosition=middle;align=right;verticalAlign=middle;rotation=-90;" parent="1" vertex="1">
          <mxGeometry x="928.5" y="573" width="20" height="484" as="geometry" />
        </mxCell>
        <mxCell id="xAxD8ZSyjkHvQui83Olt-119" value="SAMPLE_SIZE" style="text;html=1;align=center;verticalAlign=middle;whiteSpace=wrap;rounded=0;" parent="1" vertex="1">
          <mxGeometry x="890.5" y="826" width="96" height="30" as="geometry" />
        </mxCell>
        <mxCell id="xAxD8ZSyjkHvQui83Olt-121" value="ADC1" style="text;html=1;align=center;verticalAlign=middle;whiteSpace=wrap;rounded=0;" parent="1" vertex="1">
          <mxGeometry x="168" y="147" width="60" height="30" as="geometry" />
        </mxCell>
        <mxCell id="xAxD8ZSyjkHvQui83Olt-122" value="" style="triangle;whiteSpace=wrap;html=1;rotation=-180;" parent="1" vertex="1">
          <mxGeometry x="231" y="165" width="12" height="12" as="geometry" />
        </mxCell>
        <mxCell id="xAxD8ZSyjkHvQui83Olt-123" value="TIM2 40kHz" style="rounded=1;whiteSpace=wrap;html=1;" parent="1" vertex="1">
          <mxGeometry x="261" y="73" width="85" height="54" as="geometry" />
        </mxCell>
        <mxCell id="xAxD8ZSyjkHvQui83Olt-128" value="" style="edgeStyle=segmentEdgeStyle;endArrow=classic;html=1;curved=0;rounded=0;endSize=8;startSize=8;" parent="1" edge="1">
          <mxGeometry width="50" height="50" relative="1" as="geometry">
            <mxPoint x="303" y="127" as="sourcePoint" />
            <mxPoint x="243" y="172" as="targetPoint" />
            <Array as="points">
              <mxPoint x="303" y="150" />
              <mxPoint x="303" y="150" />
            </Array>
          </mxGeometry>
        </mxCell>
        <mxCell id="xAxD8ZSyjkHvQui83Olt-130" value="" style="edgeStyle=elbowEdgeStyle;elbow=horizontal;endArrow=classic;html=1;curved=0;rounded=0;endSize=8;startSize=8;entryX=0.2;entryY=0.017;entryDx=0;entryDy=0;entryPerimeter=0;" parent="1" target="xAxD8ZSyjkHvQui83Olt-4" edge="1">
          <mxGeometry width="50" height="50" relative="1" as="geometry">
            <mxPoint x="243" y="355" as="sourcePoint" />
            <mxPoint x="360" y="317" as="targetPoint" />
          </mxGeometry>
        </mxCell>
        <mxCell id="xAxD8ZSyjkHvQui83Olt-131" value="" style="endArrow=classic;html=1;rounded=0;exitX=0.558;exitY=0.006;exitDx=0;exitDy=0;exitPerimeter=0;" parent="1" source="xAxD8ZSyjkHvQui83Olt-120" edge="1">
          <mxGeometry width="50" height="50" relative="1" as="geometry">
            <mxPoint x="243" y="283.5" as="sourcePoint" />
            <mxPoint x="362" y="278" as="targetPoint" />
          </mxGeometry>
        </mxCell>
        <mxCell id="xAxD8ZSyjkHvQui83Olt-133" value="" style="edgeStyle=elbowEdgeStyle;elbow=horizontal;endArrow=classic;html=1;curved=0;rounded=0;endSize=8;startSize=8;" parent="1" edge="1">
          <mxGeometry width="50" height="50" relative="1" as="geometry">
            <mxPoint x="242.5" y="210" as="sourcePoint" />
            <mxPoint x="364.5" y="237.5" as="targetPoint" />
          </mxGeometry>
        </mxCell>
        <mxCell id="xAxD8ZSyjkHvQui83Olt-134" value="micX_filtered" style="text;html=1;align=center;verticalAlign=middle;whiteSpace=wrap;rounded=0;" parent="1" vertex="1">
          <mxGeometry x="1440" y="708" width="175" height="30" as="geometry" />
        </mxCell>
        <mxCell id="xAxD8ZSyjkHvQui83Olt-135" value="" style="shape=table;startSize=0;container=1;collapsible=0;childLayout=tableLayout;" parent="1" vertex="1">
          <mxGeometry x="1286.5" y="748" width="420" height="40" as="geometry" />
        </mxCell>
        <mxCell id="xAxD8ZSyjkHvQui83Olt-136" value="" style="shape=tableRow;horizontal=0;startSize=0;swimlaneHead=0;swimlaneBody=0;strokeColor=inherit;top=0;left=0;bottom=0;right=0;collapsible=0;dropTarget=0;fillColor=none;points=[[0,0.5],[1,0.5]];portConstraint=eastwest;" parent="xAxD8ZSyjkHvQui83Olt-135" vertex="1">
          <mxGeometry width="420" height="40" as="geometry" />
        </mxCell>
        <mxCell id="xAxD8ZSyjkHvQui83Olt-137" value="CHX_S0" style="shape=partialRectangle;html=1;whiteSpace=wrap;connectable=0;strokeColor=inherit;overflow=hidden;fillColor=none;top=0;left=0;bottom=0;right=0;pointerEvents=1;" parent="xAxD8ZSyjkHvQui83Olt-136" vertex="1">
          <mxGeometry width="88" height="40" as="geometry">
            <mxRectangle width="88" height="40" as="alternateBounds" />
          </mxGeometry>
        </mxCell>
        <mxCell id="xAxD8ZSyjkHvQui83Olt-138" value="CHX_S(1*M)" style="shape=partialRectangle;html=1;whiteSpace=wrap;connectable=0;strokeColor=inherit;overflow=hidden;fillColor=none;top=0;left=0;bottom=0;right=0;pointerEvents=1;" parent="xAxD8ZSyjkHvQui83Olt-136" vertex="1">
          <mxGeometry x="88" width="91" height="40" as="geometry">
            <mxRectangle width="91" height="40" as="alternateBounds" />
          </mxGeometry>
        </mxCell>
        <mxCell id="xAxD8ZSyjkHvQui83Olt-139" value="CHX_S(2*M)" style="shape=partialRectangle;html=1;whiteSpace=wrap;connectable=0;strokeColor=inherit;overflow=hidden;fillColor=none;top=0;left=0;bottom=0;right=0;pointerEvents=1;" parent="xAxD8ZSyjkHvQui83Olt-136" vertex="1">
          <mxGeometry x="179" width="97" height="40" as="geometry">
            <mxRectangle width="97" height="40" as="alternateBounds" />
          </mxGeometry>
        </mxCell>
        <mxCell id="xAxD8ZSyjkHvQui83Olt-140" value="CHX_S(3*M)" style="shape=partialRectangle;html=1;whiteSpace=wrap;connectable=0;strokeColor=inherit;overflow=hidden;fillColor=none;top=0;left=0;bottom=0;right=0;pointerEvents=1;" parent="xAxD8ZSyjkHvQui83Olt-136" vertex="1">
          <mxGeometry x="276" width="84" height="40" as="geometry">
            <mxRectangle width="84" height="40" as="alternateBounds" />
          </mxGeometry>
        </mxCell>
        <mxCell id="xAxD8ZSyjkHvQui83Olt-141" value="" style="shape=partialRectangle;html=1;whiteSpace=wrap;connectable=0;strokeColor=inherit;overflow=hidden;fillColor=none;top=0;left=0;bottom=0;right=0;pointerEvents=1;" parent="xAxD8ZSyjkHvQui83Olt-136" vertex="1">
          <mxGeometry x="360" width="20" height="40" as="geometry">
            <mxRectangle width="20" height="40" as="alternateBounds" />
          </mxGeometry>
        </mxCell>
        <mxCell id="xAxD8ZSyjkHvQui83Olt-142" value="" style="shape=partialRectangle;html=1;whiteSpace=wrap;connectable=0;strokeColor=inherit;overflow=hidden;fillColor=none;top=0;left=0;bottom=0;right=0;pointerEvents=1;" parent="xAxD8ZSyjkHvQui83Olt-136" vertex="1">
          <mxGeometry x="380" width="20" height="40" as="geometry">
            <mxRectangle width="20" height="40" as="alternateBounds" />
          </mxGeometry>
        </mxCell>
        <mxCell id="xAxD8ZSyjkHvQui83Olt-143" value="" style="shape=partialRectangle;html=1;whiteSpace=wrap;connectable=0;strokeColor=inherit;overflow=hidden;fillColor=none;top=0;left=0;bottom=0;right=0;pointerEvents=1;" parent="xAxD8ZSyjkHvQui83Olt-136" vertex="1">
          <mxGeometry x="400" width="20" height="40" as="geometry">
            <mxRectangle width="20" height="40" as="alternateBounds" />
          </mxGeometry>
        </mxCell>
        <mxCell id="xAxD8ZSyjkHvQui83Olt-144" value="" style="shape=table;startSize=0;container=1;collapsible=0;childLayout=tableLayout;" parent="1" vertex="1">
          <mxGeometry x="1706.5" y="748" width="60" height="40" as="geometry" />
        </mxCell>
        <mxCell id="xAxD8ZSyjkHvQui83Olt-145" value="" style="shape=tableRow;horizontal=0;startSize=0;swimlaneHead=0;swimlaneBody=0;strokeColor=inherit;top=0;left=0;bottom=0;right=0;collapsible=0;dropTarget=0;fillColor=none;points=[[0,0.5],[1,0.5]];portConstraint=eastwest;" parent="xAxD8ZSyjkHvQui83Olt-144" vertex="1">
          <mxGeometry width="60" height="40" as="geometry" />
        </mxCell>
        <mxCell id="xAxD8ZSyjkHvQui83Olt-146" value="" style="shape=partialRectangle;html=1;whiteSpace=wrap;connectable=0;strokeColor=inherit;overflow=hidden;fillColor=none;top=0;left=0;bottom=0;right=0;pointerEvents=1;" parent="xAxD8ZSyjkHvQui83Olt-145" vertex="1">
          <mxGeometry width="15" height="40" as="geometry">
            <mxRectangle width="15" height="40" as="alternateBounds" />
          </mxGeometry>
        </mxCell>
        <mxCell id="xAxD8ZSyjkHvQui83Olt-147" value=".." style="shape=partialRectangle;html=1;whiteSpace=wrap;connectable=0;strokeColor=inherit;overflow=hidden;fillColor=none;top=0;left=0;bottom=0;right=0;pointerEvents=1;" parent="xAxD8ZSyjkHvQui83Olt-145" vertex="1">
          <mxGeometry x="15" width="15" height="40" as="geometry">
            <mxRectangle width="15" height="40" as="alternateBounds" />
          </mxGeometry>
        </mxCell>
        <mxCell id="xAxD8ZSyjkHvQui83Olt-148" value="" style="shape=partialRectangle;html=1;whiteSpace=wrap;connectable=0;strokeColor=inherit;overflow=hidden;fillColor=none;top=0;left=0;bottom=0;right=0;pointerEvents=1;" parent="xAxD8ZSyjkHvQui83Olt-145" vertex="1">
          <mxGeometry x="30" width="15" height="40" as="geometry">
            <mxRectangle width="15" height="40" as="alternateBounds" />
          </mxGeometry>
        </mxCell>
        <mxCell id="xAxD8ZSyjkHvQui83Olt-149" value="" style="shape=partialRectangle;html=1;whiteSpace=wrap;connectable=0;strokeColor=inherit;overflow=hidden;fillColor=none;top=0;left=0;bottom=0;right=0;pointerEvents=1;" parent="xAxD8ZSyjkHvQui83Olt-145" vertex="1">
          <mxGeometry x="45" width="15" height="40" as="geometry">
            <mxRectangle width="15" height="40" as="alternateBounds" />
          </mxGeometry>
        </mxCell>
        <mxCell id="xAxD8ZSyjkHvQui83Olt-150" value="" style="shape=curlyBracket;whiteSpace=wrap;html=1;rounded=1;labelPosition=left;verticalLabelPosition=middle;align=right;verticalAlign=middle;rotation=-90;" parent="1" vertex="1">
          <mxGeometry x="1517.5" y="568" width="20" height="484" as="geometry" />
        </mxCell>
        <mxCell id="xAxD8ZSyjkHvQui83Olt-151" value="DECIMATION_SIZE (M)" style="text;html=1;align=center;verticalAlign=middle;whiteSpace=wrap;rounded=0;" parent="1" vertex="1">
          <mxGeometry x="1469" y="824" width="117" height="30" as="geometry" />
        </mxCell>
        <mxCell id="xAxD8ZSyjkHvQui83Olt-154" value="" style="endArrow=none;dashed=1;html=1;dashPattern=1 3;strokeWidth=2;rounded=0;" parent="1" edge="1">
          <mxGeometry width="50" height="50" relative="1" as="geometry">
            <mxPoint x="103" y="216.16" as="sourcePoint" />
            <mxPoint x="148" y="216.16" as="targetPoint" />
          </mxGeometry>
        </mxCell>
        <mxCell id="xAxD8ZSyjkHvQui83Olt-155" value="" style="endArrow=none;dashed=1;html=1;dashPattern=1 3;strokeWidth=2;rounded=0;" parent="1" edge="1">
          <mxGeometry width="50" height="50" relative="1" as="geometry">
            <mxPoint x="103" y="284.16" as="sourcePoint" />
            <mxPoint x="148" y="284.16" as="targetPoint" />
          </mxGeometry>
        </mxCell>
        <mxCell id="xAxD8ZSyjkHvQui83Olt-156" value="" style="endArrow=none;dashed=1;html=1;dashPattern=1 3;strokeWidth=2;rounded=0;" parent="1" edge="1">
          <mxGeometry width="50" height="50" relative="1" as="geometry">
            <mxPoint x="103" y="352.16" as="sourcePoint" />
            <mxPoint x="148" y="352.16" as="targetPoint" />
          </mxGeometry>
        </mxCell>
        <mxCell id="xAxD8ZSyjkHvQui83Olt-164" value="" style="endArrow=classic;html=1;rounded=0;" parent="1" edge="1">
          <mxGeometry relative="1" as="geometry">
            <mxPoint x="1085" y="237.76" as="sourcePoint" />
            <mxPoint x="1185" y="237.76" as="targetPoint" />
          </mxGeometry>
        </mxCell>
        <mxCell id="xAxD8ZSyjkHvQui83Olt-165" value="mic0_max" style="edgeLabel;resizable=0;html=1;;align=center;verticalAlign=middle;" parent="xAxD8ZSyjkHvQui83Olt-164" connectable="0" vertex="1">
          <mxGeometry relative="1" as="geometry" />
        </mxCell>
        <mxCell id="xAxD8ZSyjkHvQui83Olt-166" value="" style="endArrow=classic;html=1;rounded=0;" parent="1" edge="1">
          <mxGeometry relative="1" as="geometry">
            <mxPoint x="1086" y="279.26" as="sourcePoint" />
            <mxPoint x="1186" y="279.26" as="targetPoint" />
          </mxGeometry>
        </mxCell>
        <mxCell id="xAxD8ZSyjkHvQui83Olt-167" value="mic1_max" style="edgeLabel;resizable=0;html=1;;align=center;verticalAlign=middle;" parent="xAxD8ZSyjkHvQui83Olt-166" connectable="0" vertex="1">
          <mxGeometry relative="1" as="geometry" />
        </mxCell>
        <mxCell id="xAxD8ZSyjkHvQui83Olt-168" value="" style="endArrow=classic;html=1;rounded=0;" parent="1" edge="1">
          <mxGeometry relative="1" as="geometry">
            <mxPoint x="1086" y="320.76" as="sourcePoint" />
            <mxPoint x="1186" y="320.76" as="targetPoint" />
          </mxGeometry>
        </mxCell>
        <mxCell id="xAxD8ZSyjkHvQui83Olt-169" value="mic2_max" style="edgeLabel;resizable=0;html=1;;align=center;verticalAlign=middle;" parent="xAxD8ZSyjkHvQui83Olt-168" connectable="0" vertex="1">
          <mxGeometry relative="1" as="geometry" />
        </mxCell>
        <mxCell id="xAxD8ZSyjkHvQui83Olt-170" value="streamX" style="text;html=1;align=center;verticalAlign=middle;whiteSpace=wrap;rounded=0;" parent="1" vertex="1">
          <mxGeometry x="239" y="715" width="175" height="30" as="geometry" />
        </mxCell>
        <mxCell id="IuaKzIlHZbMsxIHbH7Mj-1" value="CHX_SY: Channel X, Sample Y" style="text;html=1;align=center;verticalAlign=middle;whiteSpace=wrap;rounded=0;" vertex="1" parent="1">
          <mxGeometry x="88.5" y="641" width="181.5" height="30" as="geometry" />
        </mxCell>
      </root>
    </mxGraphModel>
  </diagram>
</mxfile>
